# Blender v2.91.2 OBJ File: ''
# www.blender.org
o Orange
v 0.000507 1.155974 -3.252807
v 1.348804 0.136987 -1.348297
v 0.000507 0.136987 -1.906779
v 0.000507 7.802114 -3.414048
v 3.036875 6.236958 -3.036367
v 0.000507 6.236960 -4.294071
v 0.000507 4.444987 -4.656983
v 3.293493 4.444987 -3.292985
v 3.053909 2.670275 -3.053401
v 0.000507 2.670275 -4.318161
v 2.300591 1.155974 -2.300084
v 0.000507 8.929086 -1.906778
v 2.414605 7.802113 -2.414098
v 3.253314 1.155974 -0.000000
v 1.907286 0.136987 -0.000000
v 3.414556 7.802113 0.000000
v 4.294582 6.236957 0.000000
v 4.657491 4.444987 -0.000000
v 4.318671 2.670275 -0.000000
v 1.348804 8.929086 -1.348296
v 3.053909 2.670275 3.053401
v 2.300591 1.155974 2.300080
v 1.907286 8.929086 0.000000
v 2.414605 7.802113 2.414095
v 1.348804 0.136987 1.348293
v 3.036875 6.236957 3.036367
v 3.293493 4.444987 3.292982
v 0.000507 2.649151 4.389967
v 0.000507 1.155974 3.252807
v 1.348804 8.929086 1.348294
v 0.000507 7.802113 3.414045
v 0.000507 0.136987 1.906778
v 0.000507 6.279826 4.424222
v 0.000507 4.449155 5.024269
v -3.292475 4.444987 3.292982
v -3.052891 2.670275 3.053401
v -2.299573 1.155974 2.300080
v -1.347786 8.929086 1.348294
v -2.413587 7.802113 2.414095
v -1.347786 0.136987 1.348293
v -3.035856 6.236960 3.036367
v -1.906268 0.136987 -0.000000
v -4.293564 6.236960 0.000000
v -4.656473 4.444987 -0.000000
v -4.317653 2.670275 -0.000000
v -3.252299 1.155974 -0.000000
v -3.413538 7.802113 0.000000
v -3.052891 2.670275 -3.053401
v -2.299573 1.155974 -2.300084
v -1.906268 8.929086 0.000000
v -2.413587 7.802113 -2.414098
v -1.351217 0.136987 -1.348297
v -3.035860 6.236960 -3.036367
v -3.292475 4.444987 -3.292985
v -1.347786 8.929086 -1.348296
v -0.002921 0.201336 -0.000000
v 0.284175 9.242421 -0.283667
v 0.000507 9.348642 -0.208656
v 0.148049 9.348642 -0.147542
v -0.283157 9.242421 -0.283667
v 0.000507 9.242421 -0.401166
v -0.400656 9.242421 0.000000
v -0.147031 9.348642 0.147539
v -0.208146 9.348642 0.000000
v 0.209164 9.348642 0.000000
v 0.401674 9.242421 0.000000
v -0.283157 9.242421 0.283664
v 0.000507 9.348642 0.208654
v -0.147031 9.348642 -0.147542
v 0.284175 9.242421 0.283664
v 0.000507 9.242421 0.401164
v 0.148049 9.348642 0.147539
v 0.964801 9.076102 0.964294
v 0.000507 9.076102 1.363715
v 0.000507 8.929086 1.906779
v -1.363207 9.076102 0.000000
v -0.963783 9.076102 -0.964294
v -0.963783 9.076102 0.964294
v 1.364225 9.076102 0.000000
v 0.000507 9.076102 -1.363718
v 0.964801 9.076102 -0.964294
v -0.186418 9.519629 0.000000
v -0.123987 9.605119 -0.124497
v -0.131667 9.519629 -0.132178
v 0.187436 9.519629 0.000000
v 0.125005 9.605119 0.124495
v 0.132685 9.519629 0.132178
v 0.000507 9.605119 -0.176065
v 0.000507 9.519629 -0.186929
v 0.000507 9.519629 0.186926
v 0.000507 9.605119 0.176062
v -0.123987 9.605119 0.124495
v -0.131667 9.519629 0.132178
v 0.125005 9.605119 -0.124497
v 0.132685 9.519629 -0.132178
v -0.175555 9.605119 0.000000
v 0.176572 9.605119 0.000000
v 0.000507 9.616541 0.000000
v 0.191148 9.490414 0.000000
v -0.190130 9.490414 0.000000
v 0.000507 9.490414 -0.190640
v 0.135310 9.490414 -0.134802
v -0.134295 9.490414 0.134803
v 0.000507 9.490414 0.190638
v 0.135310 9.490414 0.134803
v -0.134295 9.490414 -0.134802
v 3.249777 8.879675 0.000079
v 4.023219 8.724144 -0.328880
v 4.304479 8.701179 0.000079
v 1.787273 9.350769 0.000079
v 2.152886 9.266716 -0.915130
v 2.518525 9.120582 0.000079
v 2.152886 9.266716 0.915287
v 1.435696 9.435976 0.684958
v 4.023219 8.724144 0.329037
v 2.996642 8.980690 0.677181
v 2.996642 8.980690 -0.677023
v 1.056022 9.478006 0.454628
v 1.056022 9.478006 -0.454471
v 1.056022 9.477284 0.000079
v 0.535688 9.481981 0.155636
v 0.535688 9.481981 -0.155479
v 0.535688 9.481981 0.000079
v 0.202740 9.489187 -0.109897
v 0.202740 9.489187 0.110052
v 3.257609 8.928213 0.000079
v 4.031051 8.772682 -0.328880
v 3.004473 9.029228 -0.677023
v 1.795105 9.399307 0.000079
v 2.160714 9.315254 -0.915130
v 1.443528 9.484514 -0.684800
v 2.160714 9.315254 0.915287
v 1.443528 9.484514 0.684958
v 4.031051 8.772682 0.329037
v 3.004473 9.029228 0.677181
v 2.526357 9.169123 0.000079
v 1.063853 9.526545 0.454628
v 1.063853 9.525823 0.000079
v 1.063853 9.526545 -0.454471
v 0.543520 9.530519 0.155636
v 0.543520 9.530519 -0.155479
v 0.543520 9.530519 0.000079
v 0.199119 9.523313 -0.109897
v 0.199119 9.523313 0.000079
v 0.199119 9.523313 0.110052
v 1.435696 9.435976 -0.684800
v 4.312314 8.749717 0.000079
v 0.202740 9.489187 0.000079
vt 0.977316 0.707321
vt 0.864927 0.739661
vt 0.914496 0.688775
vt 0.376446 0.278226
vt 0.452327 0.129407
vt 0.450364 0.294817
vt 0.536001 0.302322
vt 0.538129 0.122932
vt 0.623875 0.130970
vt 0.621902 0.297309
vt 0.697896 0.153894
vt 0.696410 0.279194
vt 0.819420 0.067850
vt 0.697896 0.092579
vt 0.786380 0.000000
vt 0.773167 0.792943
vt 0.794825 0.738967
vt 0.381772 0.056593
vt 0.457064 0.016055
vt 0.543267 0.000000
vt 0.628639 0.016982
vt 0.376446 0.450493
vt 0.231518 0.446970
vt 0.300268 0.403665
vt 0.770001 0.119556
vt 0.697896 0.224050
vt 0.143156 0.582388
vt 0.124534 0.503019
vt 0.770001 0.192984
vt 0.786380 0.317397
vt 0.120071 0.442978
vt 0.182785 0.410123
vt 0.376446 0.744939
vt 0.219505 0.742619
vt 0.360736 0.668628
vt 0.176647 0.665814
vt 0.329814 0.585569
vt 0.285179 0.507981
vt 0.033571 0.630126
vt 0.041985 0.538980
vt 0.819420 0.245119
vt 0.911516 0.317940
vt 0.745256 0.687100
vt 0.688606 0.580516
vt 0.745256 0.614443
vt 0.688606 0.786930
vt 0.543417 0.786609
vt 0.594301 0.721156
vt 0.110531 0.790092
vt 0.058463 0.717299
vt 0.488958 0.559912
vt 0.640837 0.643356
vt 0.674229 0.563206
vt 0.533400 0.485833
vt 0.688606 0.491369
vt 0.582522 0.433086
vt 0.938729 0.193716
vt 1.000000 0.225361
vt 0.794825 0.563558
vt 0.454258 0.644215
vt 0.773167 0.493710
vt 0.864927 0.564252
vt 0.000000 0.211479
vt 0.115803 0.232997
vt 0.021964 0.298737
vt 0.067399 0.377383
vt 0.169169 0.306088
vt 0.429073 0.442553
vt 0.916923 0.434657
vt 0.892755 0.494894
vt 1.000000 0.093891
vt 0.287032 0.403665
vt 0.347435 0.255344
vt 0.376446 0.320205
vt 0.053349 0.090650
vt 0.168453 0.071615
vt 0.074608 0.159212
vt 0.914559 0.615962
vt 0.233838 0.122821
vt 0.297180 0.186599
vt 0.228738 0.366139
vt 0.538129 0.433086
vt 0.623875 0.418558
vt 0.697896 0.370530
vt 0.889310 0.068153
vt 0.911516 0.000543
vt 0.977316 0.583375
vt 0.226563 0.000000
vt 0.306927 0.032746
vt 0.376446 0.088913
vt 0.830134 0.650966
vt 0.838122 0.148186
vt 0.852558 0.146052
vt 0.847150 0.151710
vt 0.863223 0.137371
vt 0.848519 0.137308
vt 0.873620 0.148340
vt 0.865613 0.159825
vt 0.865613 0.151790
vt 0.847150 0.159745
vt 0.838122 0.163634
vt 0.873620 0.163789
vt 0.860206 0.165483
vt 0.860206 0.146085
vt 0.848519 0.174603
vt 0.863223 0.174667
vt 0.852558 0.165450
vt 0.830079 0.219614
vt 0.880064 0.219831
vt 0.889310 0.245422
vt 0.915408 0.130336
vt 0.880064 0.093049
vt 0.915408 0.182851
vt 0.794735 0.182327
vt 0.938729 0.120289
vt 0.830079 0.092832
vt 0.794735 0.129812
vt 0.022166 0.458070
vt 0.026687 0.464804
vt 0.022563 0.465263
vt 0.018539 0.479949
vt 0.014273 0.473050
vt 0.018335 0.472759
vt 0.019321 0.404655
vt 0.023566 0.410092
vt 0.019468 0.409902
vt 0.018539 0.467387
vt 0.014466 0.467990
vt 0.014672 0.484537
vt 0.021358 0.480203
vt 0.021558 0.484537
vt 0.023566 0.416874
vt 0.019468 0.417103
vt 0.022563 0.452943
vt 0.026313 0.458029
vt 0.023427 0.421524
vt 0.019321 0.422040
vt 0.015670 0.436033
vt 0.018952 0.444207
vt 0.011107 0.440807
vt 0.026687 0.440874
vt 0.022123 0.436061
vt 0.011107 0.447587
vt 0.022123 0.452429
vt 0.015670 0.452401
vt 0.011272 0.417560
vt 0.017917 0.422216
vt 0.011107 0.423071
vt 0.014316 0.452429
vt 0.020749 0.458084
vt 0.013873 0.458151
vt 0.018068 0.409837
vt 0.018068 0.417181
vt 0.014273 0.493206
vt 0.021627 0.486018
vt 0.021959 0.493206
vt 0.014604 0.486018
vt 0.026458 0.472176
vt 0.019931 0.467181
vt 0.026687 0.466180
vt 0.019722 0.472659
vt 0.011107 0.403665
vt 0.011272 0.409522
vt 0.026687 0.480203
vt 0.021154 0.465419
vt 0.014316 0.466180
vt 0.892755 0.794128
vt 0.378006 0.146715
vt 0.264158 0.803767
vt 0.688606 0.704463
vt 0.618396 0.838903
vt 0.432075 0.725435
vt 0.376446 0.513237
vt 0.758168 0.433086
vt 0.105763 0.041726
vt 0.014466 0.479823
vt 0.023427 0.405149
vt 0.014872 0.480203
vt 0.026687 0.453201
vt 0.026687 0.447654
vt 0.021154 0.452855
vt 0.017917 0.404486
vt 0.019931 0.479993
vt 0.715875 0.948597
vt 0.719638 0.991437
vt 0.700482 1.000000
vt 0.737741 0.875574
vt 0.774388 0.907344
vt 0.726821 0.912044
vt 0.690319 0.879787
vt 0.711477 0.847927
vt 0.689421 0.981532
vt 0.688606 0.925612
vt 0.750803 0.946000
vt 0.727545 0.833065
vt 0.769299 0.846751
vt 0.748420 0.839914
vt 0.748674 0.812863
vt 0.762963 0.817547
vt 0.755819 0.815205
vt 0.765614 0.801018
vt 0.755512 0.797707
vt 0.801675 0.845415
vt 0.805416 0.802700
vt 0.836556 0.847783
vt 0.823434 0.917693
vt 0.860062 0.885954
vt 0.860062 0.924562
vt 0.776033 0.913645
vt 0.797180 0.945284
vt 0.775213 0.812653
vt 0.774388 0.868270
vt 0.812563 0.881582
vt 0.813278 0.960147
vt 0.834143 0.953267
vt 0.855012 0.946394
vt 0.834489 0.980490
vt 0.848772 0.975784
vt 0.841630 0.978137
vt 0.851618 0.992881
vt 0.846570 0.994545
vt 0.841521 0.996209
vt 0.003571 0.452464
vt 0.005420 0.422795
vt 0.007783 0.422845
vt 0.027615 0.480685
vt 0.030555 0.536500
vt 0.028199 0.536729
vt 0.003993 0.513307
vt 0.006828 0.549568
vt 0.001629 0.513256
vt 0.002364 0.474642
vt 0.001208 0.452413
vt 0.009191 0.549619
vt 0.008743 0.591840
vt 0.017914 0.435666
vt 0.019653 0.420629
vt 0.020253 0.436033
vt 0.846736 0.995082
vt 0.031216 0.403894
vt 0.033134 0.434333
vt 0.030779 0.434563
vt 0.029971 0.480456
vt 0.000000 0.474591
vt 0.026687 0.480478
vt 0.023224 0.498199
vt 0.024335 0.480203
vt 0.025576 0.498475
vt 0.024335 0.522226
vt 0.008917 0.406238
vt 0.010493 0.406690
vt 0.025256 0.403749
vt 0.027615 0.424740
vt 0.025256 0.424823
vt 0.031216 0.555638
vt 0.033571 0.555409
vt 0.018013 0.420801
vt 0.011107 0.404082
vt 0.760734 0.798805
vt 0.760563 0.799363
vt 0.774388 0.868549
vt 0.786236 0.794128
vt 0.011107 0.591891
vt 0.853590 0.995697
vt 0.033571 0.403665
vt 0.841455 0.999696
vt 0.026687 0.522501
vt 0.027615 0.403665
vt 0.009749 0.403665
vt 0.755336 0.794128
vt 0.767718 0.798187
vn 0.2425 -0.7735 -0.5856
vn 0.3396 0.4610 -0.8199
vn 0.3762 0.1839 -0.9081
vn 0.3769 -0.1737 -0.9098
vn 0.3209 -0.5450 -0.7746
vn 0.2407 0.7773 -0.5812
vn 0.5856 -0.7735 -0.2425
vn 0.8199 0.4610 -0.3396
vn 0.9081 0.1839 -0.3762
vn 0.9098 -0.1737 -0.3769
vn 0.7746 -0.5450 -0.3209
vn 0.5812 0.7773 -0.2407
vn 0.7746 -0.5450 0.3209
vn 0.5812 0.7773 0.2407
vn 0.5856 -0.7735 0.2425
vn 0.8199 0.4610 0.3396
vn 0.9081 0.1839 0.3762
vn 0.9098 -0.1737 0.3769
vn 0.3958 -0.1751 0.9015
vn 0.3209 -0.5450 0.7746
vn 0.2407 0.7773 0.5812
vn 0.2425 -0.7735 0.5856
vn 0.3623 0.5154 0.7766
vn 0.4472 0.2786 0.8499
vn -0.4472 0.2786 0.8499
vn -0.3958 -0.1751 0.9015
vn -0.3209 -0.5450 0.7746
vn -0.2407 0.7773 0.5812
vn -0.2425 -0.7735 0.5856
vn -0.3623 0.5154 0.7766
vn -0.5856 -0.7735 0.2425
vn -0.8199 0.4610 0.3396
vn -0.9081 0.1839 0.3762
vn -0.9098 -0.1737 0.3769
vn -0.7746 -0.5450 0.3209
vn -0.5812 0.7773 0.2407
vn -0.7746 -0.5450 -0.3209
vn -0.5812 0.7773 -0.2407
vn -0.5861 -0.7736 -0.2411
vn -0.5859 -0.7736 -0.2412
vn -0.5858 -0.7738 -0.2411
vn -0.8199 0.4610 -0.3396
vn -0.9081 0.1839 -0.3762
vn -0.9098 -0.1737 -0.3769
vn -0.3769 -0.1737 -0.9098
vn -0.3209 -0.5450 -0.7746
vn -0.2407 0.7773 -0.5812
vn -0.2424 -0.7733 -0.5859
vn -0.2422 -0.7732 -0.5862
vn -0.2422 -0.7730 -0.5863
vn -0.3396 0.4610 -0.8199
vn -0.3762 0.1839 -0.9081
vn -0.0140 -0.9993 0.0337
vn 0.0338 -0.9993 0.0139
vn -0.0337 -0.9993 0.0139
vn -0.0140 -0.9993 -0.0337
vn 0.1962 0.8585 -0.4737
vn -0.1962 0.8585 -0.4737
vn -0.4737 0.8585 0.1962
vn 0.4737 0.8585 -0.1962
vn -0.1962 0.8585 0.4737
vn -0.4737 0.8585 -0.1962
vn 0.1962 0.8585 0.4737
vn 0.4737 0.8585 0.1962
vn 0.2598 0.9596 0.1076
vn 0.1076 0.9596 0.2598
vn -0.2598 0.9596 -0.1076
vn -0.1076 0.9596 0.2598
vn 0.2598 0.9596 -0.1076
vn -0.2598 0.9596 0.1076
vn -0.1076 0.9596 -0.2598
vn 0.1076 0.9596 -0.2598
vn 0.1076 0.9597 -0.2598
vn -0.9176 0.1166 -0.3801
vn 0.9176 0.1166 0.3801
vn -0.3801 0.1166 -0.9176
vn 0.3801 0.1166 0.9176
vn -0.3801 0.1166 0.9176
vn 0.3801 0.1166 -0.9176
vn -0.9176 0.1166 0.3801
vn 0.9176 0.1166 -0.3801
vn 0.0268 0.9975 -0.0647
vn -0.0647 0.9975 -0.0268
vn 0.0647 0.9975 -0.0268
vn 0.0268 0.9975 0.0647
vn 0.1698 0.9830 0.0704
vn 0.1698 0.9830 0.0703
vn 0.0704 0.9830 0.1698
vn -0.1698 0.9830 -0.0704
vn -0.0704 0.9830 0.1698
vn 0.1698 0.9830 -0.0704
vn -0.1698 0.9830 0.0704
vn -0.0704 0.9830 -0.1698
vn 0.0704 0.9830 -0.1698
vn 0.4439 -0.2978 0.8451
vn 0.3324 -0.5714 0.7503
vn 0.3396 0.4610 0.8199
vn 0.4106 0.1866 0.8925
vn -0.4106 0.1866 0.8925
vn -0.4439 -0.2978 0.8451
vn -0.3324 -0.5714 0.7503
vn -0.3396 0.4610 0.8199
vn -0.5865 -0.7727 -0.2429
vn -0.2425 -0.7735 -0.5856
vn 0.0139 -0.9993 0.0338
vn 0.0338 -0.9993 -0.0140
vn -0.0337 -0.9993 -0.0139
vn 0.0140 -0.9993 -0.0338
vn -0.1076 0.9597 0.2598
vn -0.0268 0.9975 -0.0647
vn -0.0647 0.9975 0.0268
vn 0.0647 0.9975 0.0268
vn -0.0268 0.9975 0.0647
vn 0.1698 0.9830 -0.0703
vn -0.1664 -0.9833 0.0736
vn -0.3001 -0.9534 -0.0323
vn -0.2305 -0.9731 0.0027
vn -0.2221 -0.9730 0.0621
vn -0.3136 -0.9492 0.0254
vn -0.3137 -0.9492 0.0254
vn -0.3144 -0.9489 0.0259
vn -0.3136 -0.9492 -0.0254
vn -0.3137 -0.9492 -0.0254
vn -0.3128 -0.9495 -0.0247
vn -0.1404 -0.9888 0.0510
vn -0.1705 -0.9854 -0.0016
vn -0.1705 -0.9854 0.0000
vn -0.0080 -1.0000 0.0014
vn -0.0097 -1.0000 0.0000
vn -0.0086 -1.0000 0.0016
vn -0.0080 -1.0000 -0.0014
vn -0.0086 -1.0000 -0.0016
vn -0.0216 -0.9998 -0.0000
vn 0.2221 0.9730 0.0621
vn 0.2305 0.9731 0.0027
vn 0.2305 0.9731 -0.0027
vn 0.2221 0.9730 -0.0621
vn 0.3137 0.9492 -0.0254
vn 0.3136 0.9492 -0.0253
vn 0.3144 0.9489 -0.0259
vn 0.3136 0.9492 0.0253
vn 0.3137 0.9492 0.0254
vn 0.3144 0.9489 0.0259
vn 0.1705 0.9854 -0.0016
vn 0.1705 0.9854 -0.0000
vn 0.1705 0.9854 0.0016
vn 0.0098 1.0000 0.0000
vn 0.0087 1.0000 -0.0014
vn 0.0086 1.0000 -0.0016
vn 0.0087 1.0000 0.0014
vn 0.0090 1.0000 0.0000
vn -0.0209 0.9998 0.0000
vn -0.4962 0.0801 0.8645
vn 0.3096 -0.0499 -0.9496
vn 0.3095 -0.0499 -0.9496
vn 0.2583 -0.0417 0.9652
vn 0.2582 -0.0417 0.9652
vn -0.5102 0.0823 0.8561
vn 0.3096 -0.0499 0.9496
vn 0.3095 -0.0499 0.9496
vn -0.1316 0.0212 -0.9911
vn -0.3008 0.9537 0.0000
vn -0.2952 0.0476 -0.9542
vn 0.2583 -0.0417 -0.9652
vn 0.2582 -0.0417 -0.9652
vn -0.2952 0.0476 0.9542
vn -0.5102 0.0823 -0.8561
vn -0.4962 0.0801 -0.8645
vn -0.1359 -0.0144 0.9906
vn 0.7503 -0.1211 0.6499
vn 0.7503 -0.1211 -0.6499
vn 0.3468 0.0368 -0.9372
vn 0.3449 0.0366 0.9379
vn -0.1052 -0.9944 0.0000
vn -0.2221 -0.9730 -0.0621
vn -0.2305 -0.9731 -0.0027
vn -0.3001 -0.9534 0.0323
vn -0.1664 -0.9833 -0.0736
vn -0.3128 -0.9495 0.0247
vn -0.3144 -0.9489 -0.0259
vn -0.1705 -0.9854 0.0016
vn -0.1404 -0.9888 -0.0510
vn 0.1664 0.9833 -0.0736
vn 0.3001 0.9534 0.0323
vn 0.3001 0.9534 -0.0323
vn 0.1664 0.9833 0.0736
vn 0.3128 0.9495 -0.0247
vn 0.3128 0.9495 0.0247
vn 0.1404 0.9888 -0.0510
vn 0.1404 0.9888 0.0510
vn 0.0086 1.0000 0.0016
vn -0.1359 -0.0144 -0.9906
vn -0.0642 0.9976 0.0266
vn -0.0642 0.9976 -0.0266
vn -0.1316 0.0212 0.9911
vn 0.3103 0.1127 -0.9439
vn 0.3084 0.1126 0.9446
vn -0.0214 -0.9997 -0.0089
vn -0.0215 -0.9997 0.0089
s 1
f 1/1/1 2/2/1 3/3/1
f 4/4/2 5/5/2 6/6/2
f 7/7/3 5/5/3 8/8/3
f 7/7/4 9/9/4 10/10/4
f 10/10/5 11/11/5 1/12/5
f 12/13/6 13/14/6 4/15/6
f 2/2/7 14/16/7 15/17/7
f 5/5/8 16/18/8 17/19/8
f 8/8/9 17/19/9 18/20/9
f 8/8/10 19/21/10 9/9/10
f 9/22/11 14/23/11 11/24/11
f 20/25/12 16/26/12 13/14/12
f 14/23/13 21/27/13 22/28/13
f 23/29/14 24/30/14 16/26/14
f 14/23/15 25/31/15 15/32/15
f 16/33/16 26/34/16 17/35/16
f 17/35/17 27/36/17 18/37/17
f 18/37/18 21/27/18 19/38/18
f 27/36/19 28/39/19 21/27/19
f 21/27/20 29/40/20 22/28/20
f 30/41/21 31/42/21 24/30/21
f 25/43/22 29/44/22 32/45/22
f 26/46/23 31/47/23 33/48/23
f 27/36/24 33/49/24 34/50/24
f 33/48/25 35/51/25 34/52/25
f 28/53/26 35/51/26 36/54/26
f 29/55/27 36/54/27 37/56/27
f 31/42/28 38/57/28 39/58/28
f 29/44/29 40/59/29 32/45/29
f 31/47/30 41/60/30 33/48/30
f 37/61/31 42/62/31 40/59/31
f 39/63/32 43/64/32 41/65/32
f 35/66/33 43/64/33 44/67/33
f 35/51/34 45/68/34 36/54/34
f 37/61/35 45/69/35 46/70/35
f 38/57/36 47/71/36 39/58/36
f 46/72/37 48/73/37 49/74/37
f 50/75/38 51/76/38 47/77/38
f 46/70/39 52/78/40 42/62/41
f 47/77/42 53/79/42 43/64/42
f 44/67/43 53/79/43 54/80/43
f 44/67/44 48/73/44 45/81/44
f 54/82/45 10/10/45 48/83/45
f 48/83/46 1/12/46 49/84/46
f 55/85/47 4/15/47 51/86/47
f 49/87/48 3/3/49 52/78/50
f 53/79/51 4/88/51 6/89/51
f 54/80/52 6/89/52 7/90/52
f 56/91/53 3/3/53 2/2/53
f 56/91/54 42/62/54 52/78/54
f 15/17/55 56/91/55 2/2/55
f 32/45/56 56/91/56 25/43/56
f 57/92/57 58/93/57 59/94/57
f 60/95/58 58/93/58 61/96/58
f 62/97/59 63/98/59 64/99/59
f 57/92/60 65/100/60 66/101/60
f 67/102/61 68/103/61 63/98/61
f 62/97/62 69/104/62 60/95/62
f 70/105/63 68/103/63 71/106/63
f 70/105/64 65/100/64 72/107/64
f 23/29/65 73/108/65 30/41/65
f 30/41/66 74/109/66 75/110/66
f 55/85/67 76/111/67 77/112/67
f 75/110/68 78/113/68 38/57/68
f 20/25/69 79/114/69 23/29/69
f 38/57/70 76/111/70 50/115/70
f 55/85/71 80/116/71 12/13/71
f 20/25/72 80/116/72 81/117/73
f 82/118/74 83/119/74 84/120/74
f 85/121/75 86/122/75 87/123/75
f 84/124/76 88/125/76 89/126/76
f 90/127/77 86/122/77 91/128/77
f 90/129/78 92/130/78 93/131/78
f 89/126/79 94/132/79 95/133/79
f 93/134/80 96/135/80 82/118/80
f 95/133/81 97/136/81 85/137/81
f 88/138/82 98/139/82 94/140/82
f 96/141/83 98/139/83 83/142/83
f 98/139/84 97/143/84 94/140/84
f 98/139/85 91/144/85 86/145/85
f 73/108/86 66/101/86 70/105/87
f 73/108/88 71/106/88 74/109/88
f 77/112/89 62/97/89 60/95/89
f 78/113/90 71/106/90 67/102/90
f 81/117/91 66/101/91 79/114/91
f 78/113/92 62/97/92 76/111/92
f 77/112/93 61/96/93 80/116/93
f 81/117/94 61/96/94 57/92/94
f 59/146/81 99/147/81 65/148/81
f 63/149/80 100/150/80 64/151/80
f 100/150/80 93/134/80 82/118/80
f 59/146/79 101/152/79 102/153/79
f 102/153/79 89/126/79 95/133/79
f 68/154/78 103/155/78 63/156/78
f 104/157/78 93/131/78 103/155/78
f 72/158/77 104/159/77 68/160/77
f 105/161/77 90/127/77 104/159/77
f 69/162/76 101/152/76 58/163/76
f 101/152/76 84/124/76 89/126/76
f 65/164/75 105/161/75 72/158/75
f 64/151/74 106/165/74 69/166/74
f 100/150/74 84/120/74 106/165/74
f 1/1/1 11/167/1 2/2/1
f 4/4/2 13/168/2 5/5/2
f 7/7/3 6/6/3 5/5/3
f 7/7/4 8/8/4 9/9/4
f 10/10/5 9/9/5 11/11/5
f 12/13/6 20/25/6 13/14/6
f 2/2/7 11/167/7 14/16/7
f 5/5/8 13/168/8 16/18/8
f 8/8/9 5/5/9 17/19/9
f 8/8/10 18/20/10 19/21/10
f 9/22/11 19/38/11 14/23/11
f 20/25/12 23/29/12 16/26/12
f 14/23/13 19/38/13 21/27/13
f 23/29/14 30/41/14 24/30/14
f 14/23/15 22/28/15 25/31/15
f 16/33/16 24/169/16 26/34/16
f 17/35/17 26/34/17 27/36/17
f 18/37/18 27/36/18 21/27/18
f 27/36/95 34/50/95 28/39/95
f 21/27/96 28/39/96 29/40/96
f 30/41/21 75/110/21 31/42/21
f 25/43/22 22/170/22 29/44/22
f 26/46/97 24/171/97 31/47/97
f 27/36/98 26/34/98 33/49/98
f 33/48/99 41/60/99 35/51/99
f 28/53/100 34/52/100 35/51/100
f 29/55/101 28/53/101 36/54/101
f 31/42/28 75/110/28 38/57/28
f 29/44/29 37/61/29 40/59/29
f 31/47/102 39/172/102 41/60/102
f 37/61/31 46/70/31 42/62/31
f 39/63/32 47/77/32 43/64/32
f 35/66/33 41/65/33 43/64/33
f 35/51/34 44/173/34 45/68/34
f 37/61/35 36/174/35 45/69/35
f 38/57/36 50/115/36 47/71/36
f 46/72/37 45/81/37 48/73/37
f 50/75/38 55/175/38 51/76/38
f 46/70/39 49/87/103 52/78/40
f 47/77/42 51/76/42 53/79/42
f 44/67/43 43/64/43 53/79/43
f 44/67/44 54/80/44 48/73/44
f 54/82/45 7/7/45 10/10/45
f 48/83/46 10/10/46 1/12/46
f 55/85/47 12/13/47 4/15/47
f 49/87/48 1/1/104 3/3/49
f 53/79/51 51/76/51 4/88/51
f 54/80/52 53/79/52 6/89/52
f 56/91/105 52/78/105 3/3/105
f 56/91/106 40/59/106 42/62/106
f 15/17/107 25/43/107 56/91/107
f 32/45/108 40/59/108 56/91/108
f 57/92/57 61/96/57 58/93/57
f 60/95/58 69/104/58 58/93/58
f 62/97/59 67/102/59 63/98/59
f 57/92/60 59/94/60 65/100/60
f 67/102/61 71/106/61 68/103/61
f 62/97/62 64/99/62 69/104/62
f 70/105/63 72/107/63 68/103/63
f 70/105/64 66/101/64 65/100/64
f 23/29/65 79/114/65 73/108/65
f 30/41/66 73/108/66 74/109/66
f 55/85/67 50/115/67 76/111/67
f 75/110/68 74/109/109 78/113/68
f 20/25/69 81/117/69 79/114/69
f 38/57/70 78/113/70 76/111/70
f 55/85/71 77/112/71 80/116/71
f 20/25/72 12/13/72 80/116/72
f 82/118/74 96/135/74 83/119/74
f 85/121/75 97/176/75 86/122/75
f 84/124/76 83/177/76 88/125/76
f 90/127/77 87/123/77 86/122/77
f 90/129/78 91/178/78 92/130/78
f 89/126/79 88/125/79 94/132/79
f 93/134/80 92/179/80 96/135/80
f 95/133/81 94/132/81 97/136/81
f 88/138/110 83/142/110 98/139/110
f 96/141/111 92/180/111 98/139/111
f 98/139/112 86/145/112 97/143/112
f 98/139/113 92/180/113 91/144/113
f 73/108/86 79/114/86 66/101/86
f 73/108/88 70/105/88 71/106/88
f 77/112/89 76/111/89 62/97/89
f 78/113/90 74/109/90 71/106/90
f 81/117/91 57/92/114 66/101/91
f 78/113/92 67/102/92 62/97/92
f 77/112/93 60/95/93 61/96/93
f 81/117/94 80/116/94 61/96/94
f 59/146/81 102/153/81 99/147/81
f 63/149/80 103/181/80 100/150/80
f 100/150/80 103/181/80 93/134/80
f 59/146/79 58/163/79 101/152/79
f 102/153/79 101/152/79 89/126/79
f 68/154/78 104/157/78 103/155/78
f 104/157/78 90/129/78 93/131/78
f 72/158/77 105/161/77 104/159/77
f 105/161/77 87/123/77 90/127/77
f 69/162/76 106/182/76 101/152/76
f 101/152/76 106/182/76 84/124/76
f 65/164/75 99/183/75 105/161/75
f 64/151/74 100/150/74 106/165/74
f 100/150/74 82/118/74 84/120/74
f 107/184/115 108/185/115 109/186/115
f 110/187/116 111/188/116 112/189/116
f 110/187/117 113/190/117 114/191/117
f 107/184/118 115/192/118 116/193/118
f 112/189/119 116/193/120 113/190/121
f 112/189/122 117/194/123 107/184/124
f 118/195/125 110/187/125 114/191/125
f 119/196/126 110/187/127 120/197/127
f 121/198/128 120/197/129 118/195/130
f 120/197/129 122/199/131 119/196/132
f 123/200/133 124/201/133 122/199/131
f 125/202/133 123/200/133 121/198/128
f 126/203/134 127/204/134 128/205/134
f 129/206/135 130/207/135 131/208/135
f 132/209/136 129/206/136 133/210/136
f 134/211/137 126/203/137 135/212/137
f 135/212/138 136/213/139 132/209/140
f 136/213/141 128/205/142 130/207/143
f 137/214/144 129/206/145 138/215/145
f 129/206/145 139/216/146 138/215/145
f 138/215/147 140/217/148 137/214/149
f 138/215/147 141/218/150 142/219/151
f 142/219/152 143/220/152 144/221/152
f 142/219/152 145/222/152 140/217/152
f 118/223/153 140/224/153 121/225/153
f 117/226/154 127/227/155 108/228/155
f 113/229/156 135/230/157 132/231/156
f 114/232/158 137/233/158 118/223/158
f 116/234/159 134/235/160 135/230/159
f 122/236/161 143/237/161 141/238/161
f 143/220/162 85/239/162 144/221/162
f 146/240/163 130/241/163 111/242/163
f 111/242/164 128/243/165 117/226/165
f 85/239/162 145/222/162 144/221/162
f 114/232/166 132/231/166 133/244/166
f 146/245/167 139/246/167 131/247/167
f 119/248/168 141/249/168 139/246/168
f 121/225/169 145/250/169 125/251/169
f 109/252/170 134/253/170 115/254/170
f 109/255/171 127/227/171 147/256/171
f 102/153/172 143/237/172 124/257/172
f 145/250/173 105/258/173 125/251/173
f 125/202/174 99/259/174 148/260/174
f 99/259/174 124/201/174 148/260/174
f 107/184/175 117/194/175 108/185/175
f 110/187/176 146/261/176 111/188/176
f 110/187/177 112/189/177 113/190/177
f 107/184/178 109/186/178 115/192/178
f 112/189/119 107/184/179 116/193/120
f 112/189/122 111/188/180 117/194/123
f 118/195/181 120/197/127 110/187/127
f 119/196/182 146/261/182 110/187/182
f 121/198/128 123/200/133 120/197/129
f 120/197/129 123/200/133 122/199/131
f 123/200/133 148/260/133 124/201/133
f 125/202/133 148/260/133 123/200/133
f 126/203/183 147/262/183 127/204/183
f 129/206/184 136/213/184 130/207/184
f 132/209/185 136/213/185 129/206/185
f 134/211/186 147/262/186 126/203/186
f 135/212/138 126/203/187 136/213/139
f 136/213/141 126/203/188 128/205/142
f 137/214/189 133/210/189 129/206/189
f 129/206/190 131/208/190 139/216/190
f 138/215/147 142/219/151 140/217/148
f 138/215/147 139/216/191 141/218/150
f 142/219/152 141/218/152 143/220/152
f 142/219/152 144/221/152 145/222/152
f 118/223/153 137/233/153 140/224/153
f 117/226/154 128/243/154 127/227/155
f 113/229/156 116/234/157 135/230/157
f 114/232/158 133/244/158 137/233/158
f 116/234/159 115/263/160 134/235/160
f 122/236/192 124/257/192 143/237/192
f 143/220/193 95/264/193 85/239/193
f 146/240/163 131/265/163 130/241/163
f 111/242/164 130/241/164 128/243/165
f 85/239/194 87/266/194 145/222/194
f 114/232/166 113/229/166 132/231/166
f 146/245/167 119/248/167 139/246/167
f 119/248/168 122/267/168 141/249/168
f 121/225/195 140/224/195 145/250/195
f 109/252/170 147/268/170 134/253/170
f 109/255/171 108/228/171 127/227/171
f 102/153/196 95/133/196 143/237/196
f 145/250/197 87/269/197 105/258/197
f 125/202/198 105/270/198 99/259/198
f 99/259/199 102/271/199 124/201/199
